# xmcd CD database file
#
# Track frame offsets:
#	150
#	21672
#	47885
#	67642
#	99205
#	118212
#	144830
#	196985
#	258765
#	287977
#	318800
#
# Disc length: 4585 seconds
#
# Revision: 0
# Processed by: cddbd v1.5.1PL2 Copyright (c) Steve Scherf et al.
# Submitted via: CDex 1.51
#
DISCID=9611e70b
DTITLE=John Coltrane - John Coltrane
DYEAR=2003
DGENRE=Jazz
TTITLE0=Giant Steps
TTITLE1=Cousin Mary
TTITLE2=Naima
TTITLE3=Mr. P.C.
TTITLE4=Harmonique
TTITLE5=Like Sonny
TTITLE6=Summertime
TTITLE7=My Favorite Things
TTITLE8=Blues To You
TTITLE9=The Night Has A Thousand Eyes
TTITLE10=Body And Soul
EXTD=YEAR: 2003
EXTT0=
EXTT1=
EXTT2=
EXTT3=
EXTT4=
EXTT5=
EXTT6=
EXTT7=
EXTT8=
EXTT9=
EXTT10=
PLAYORDER=
